<?xml version="1.0" standalone="no"?>
<!DOCTYPE svg PUBLIC "-//W3C//DTD SVG 20010904//EN"
 "http://www.w3.org/TR/2001/REC-SVG-20010904/DTD/svg10.dtd">
<svg version="1.0" xmlns="http://www.w3.org/2000/svg"
 width="500.000000pt" height="500.000000pt" viewBox="0 0 500.000000 500.000000"
 preserveAspectRatio="xMidYMid meet">
<metadata>
Created by potrace 1.11, written by Peter Selinger 2001-2013
</metadata>
<g transform="translate(0.000000,500.000000) scale(0.100000,-0.100000)"
fill="#000000" stroke="none">
<path d="M2800 2831 l0 -241 40 0 39 0 3 145 3 145 89 -145 c86 -140 90 -145
122 -145 l34 0 0 241 0 240 -37 -3 -38 -3 -5 -149 -5 -149 -90 149 c-84 139
-92 149 -122 152 l-33 3 0 -240z"/>
<path d="M3247 3064 c-3 -4 30 -59 73 -122 l80 -116 0 -118 0 -118 40 0 40 0
0 113 0 112 80 120 c44 66 80 124 80 128 0 5 -19 7 -42 5 -42 -3 -45 -6 -99
-86 l-57 -83 -58 86 c-55 81 -59 85 -94 85 -20 0 -39 -3 -43 -6z"/>
<path d="M3850 3060 c-49 -9 -73 -24 -113 -70 -91 -107 -71 -285 42 -365 37
-26 52 -30 106 -30 54 0 69 4 107 30 64 45 97 113 98 198 0 79 -18 128 -63
175 -52 55 -107 74 -177 62z m101 -87 c41 -35 59 -79 59 -145 -1 -68 -29 -132
-72 -158 -43 -26 -67 -25 -108 3 -47 32 -70 81 -70 150 0 71 17 115 59 150 43
36 89 36 132 0z"/>
<path d="M4200 2913 c0 -174 10 -212 66 -265 48 -45 90 -57 202 -57 l102 0 -2
237 -3 237 -37 3 -38 3 0 -194 c0 -222 0 -222 -81 -222 -37 0 -53 6 -74 25
-50 47 -55 67 -55 235 l0 155 -40 0 -40 0 0 -157z"/>
<path d="M1999 3037 c-68 -45 -76 -123 -18 -171 27 -23 50 -32 132 -50 18 -4
33 -18 44 -41 16 -33 16 -37 0 -70 -9 -20 -28 -40 -41 -46 -37 -17 -92 -3
-118 31 l-23 30 -28 -19 -28 -18 27 -33 c68 -80 199 -81 267 -1 50 60 44 146
-14 195 -27 23 -50 32 -132 50 -67 15 -52 106 17 106 19 0 45 -9 60 -21 25
-20 29 -20 43 -6 21 20 11 42 -29 67 -46 28 -115 27 -159 -3z"/>
<path d="M2462 3033 c-25 -61 -152 -426 -152 -434 0 -5 17 -9 39 -9 l38 0 28
75 27 76 61 -3 62 -3 26 -70 27 -70 42 -3 c38 -3 42 -1 36 15 -4 10 -42 116
-84 236 l-76 217 -32 0 c-25 0 -34 -6 -42 -27z m72 -210 c7 -21 4 -23 -28 -23
-41 0 -41 0 -19 65 l16 49 12 -34 c7 -19 15 -45 19 -57z"/>
<path d="M671 2849 c-124 -54 -226 -101 -229 -103 -2 -3 -1 -13 2 -24 6 -18
26 -11 247 86 179 79 239 110 237 121 -2 9 -10 17 -18 18 -8 1 -116 -43 -239
-98z"/>
<path d="M966 2923 c-10 -25 -7 -31 23 -41 24 -8 31 -7 35 5 10 25 7 31 -23
41 -24 8 -31 7 -35 -5z"/>
<path d="M1055 2873 c-3 -10 -3 -19 2 -21 4 -1 42 -17 83 -35 l75 -33 3 -117
c1 -64 0 -117 -3 -117 -3 0 -35 14 -72 30 -78 35 -79 36 -86 11 -4 -16 9 -26
79 -57 l84 -37 0 -118 0 -118 -37 16 c-21 8 -55 24 -75 34 -37 19 -37 19 -48
-2 -7 -11 -10 -22 -8 -23 2 -1 39 -18 83 -37 l80 -36 3 -41 3 -42 -291 0 -291
0 3 45 3 46 140 61 c77 34 142 63 144 65 2 1 0 12 -5 22 -8 19 -24 13 -244
-83 -221 -97 -261 -122 -231 -141 6 -3 41 7 78 24 l68 30 3 -60 3 -59 334 0
335 0 0 55 0 54 64 -29 c66 -29 76 -29 76 0 0 10 -24 27 -70 47 l-70 31 0 116
c0 64 2 116 5 116 2 0 30 -11 62 -25 55 -25 58 -25 71 -8 12 16 7 21 -62 53
l-76 34 0 118 0 118 57 -25 c31 -14 63 -23 70 -21 27 11 12 33 -37 56 -33 16
-50 30 -50 42 0 18 -35 26 -42 9 -6 -17 -48 8 -48 29 0 22 -35 29 -42 9 -3 -8
-18 -4 -46 10 -50 26 -68 26 -77 4z"/>
<path d="M673 2567 c-128 -56 -233 -106 -233 -112 0 -38 21 -33 245 66 127 56
234 105 238 108 8 8 -1 41 -12 40 -3 0 -111 -46 -238 -102z"/>
<path d="M967 2643 c-14 -13 -6 -30 20 -42 21 -10 28 -9 34 1 13 20 11 26 -10
38 -23 12 -35 13 -44 3z"/>
<path d="M1932 2193 l3 -238 135 0 135 0 0 30 0 30 -97 3 -98 3 0 89 0 90 100
0 100 0 0 30 0 30 -100 0 -100 0 0 55 0 55 100 0 100 0 0 30 0 30 -140 0 -140
0 2 -237z"/>
<path d="M2473 2411 c-43 -20 -73 -62 -73 -101 0 -59 72 -119 143 -120 18 0
40 -11 59 -30 25 -26 29 -36 24 -62 -16 -82 -106 -107 -164 -47 -30 31 -32 31
-57 15 -24 -16 -24 -18 -9 -41 9 -14 30 -33 48 -44 73 -43 156 -33 217 28 50
49 58 95 29 155 -24 50 -71 79 -148 91 -47 8 -67 32 -58 71 12 48 84 56 125
15 19 -19 20 -19 37 0 16 18 16 20 -2 40 -22 26 -74 49 -106 49 -13 0 -42 -9
-65 -19z"/>
<path d="M2850 2400 c0 -28 1 -29 58 -32 l57 -3 3 -208 2 -208 38 3 37 3 3
208 2 207 55 0 c54 0 55 0 55 30 l0 30 -155 0 -155 0 0 -30z"/>
<path d="M3352 2198 c-46 -128 -82 -236 -82 -240 0 -13 67 -9 77 5 5 6 20 40
33 75 l22 62 63 0 63 0 22 -62 c13 -35 28 -69 33 -75 10 -13 77 -18 77 -7 0 4
-37 112 -82 240 l-82 234 -31 0 -31 0 -82 -232z m144 -12 c6 -24 4 -26 -30
-26 -41 0 -42 0 -19 66 l17 49 12 -31 c7 -17 16 -43 20 -58z"/>
<path d="M3780 2400 c0 -30 1 -30 55 -30 l55 0 0 -210 0 -210 40 0 40 0 0 210
0 210 55 0 c54 0 55 0 55 30 l0 30 -150 0 -150 0 0 -30z"/>
<path d="M4290 2190 l0 -241 133 3 132 3 3 33 3 32 -95 0 -96 0 0 90 0 90 95
0 95 0 0 30 0 30 -95 0 -95 0 0 55 0 55 95 0 95 0 0 30 0 30 -135 0 -135 0 0
-240z"/>
<path d="M966 2354 c-9 -22 -9 -22 23 -38 26 -14 30 -14 35 0 10 25 7 30 -19
42 -33 15 -32 15 -39 -4z"/>
</g>
</svg>
