<svg version="1.1" id="レイヤー_1" xmlns="http://www.w3.org/2000/svg" x="0" y="0" viewBox="0 0 440 117.4" xml:space="preserve"><style>.st1{fill:#231815}</style><path d="M193.2 34.3c0 2.2-.5 4.2-1.4 6.2-.9 1.9-2.2 3.6-3.8 5.1s-3.5 2.6-5.6 3.5c-2.2.8-4.5 1.3-6.9 1.3-1.7 0-3.3-.2-4.9-.5s-3.1-.8-4.5-1.6-2.7-1.8-4-3.1c-1.3-1.3-2.5-3-3.6-5l5.8-3.5c1.4 2.7 3.1 4.6 5 5.7s4 1.6 6.1 1.6c1.2 0 2.4-.3 3.5-.8s2.1-1.2 3-2.1c.8-.9 1.5-1.9 2-3 .5-1.2.8-2.4.8-3.7 0-1.9-.5-3.6-1.6-5-1-1.4-2.2-2.4-3.5-3-1-.4-2.3-.7-3.9-.8-1.3-.2-2.3-.4-3.2-.5-.8-.2-1.5-.4-2.1-.5-3-1-5.4-2.5-7.2-4.6-1.8-2.1-2.7-4.4-2.7-7.1 0-1.7.4-3.4 1.2-4.9s1.9-2.8 3.2-4c1.3-1.1 2.9-2 4.7-2.7 1.8-.6 3.7-1 5.7-1 2.6 0 5.1.6 7.4 1.9 2.4 1.3 4.3 3 5.9 5.1l-3.9 4.4c-.9-1.2-1.8-2.2-2.7-2.9-.9-.7-1.7-1.2-2.5-1.5s-1.6-.5-2.3-.5c-.7-.1-1.4-.1-1.9-.1-1.7 0-3.2.6-4.4 1.8-1.2 1.2-1.8 2.6-1.8 4.3 0 1.9.5 3.2 1.5 4.1.6.6 1.4 1.1 2.5 1.3 1 .3 2.5.6 4.3.8 3.1.4 5.6 1.1 7.4 2.1s3.3 2.1 4.4 3.3c1.2 1.3 2.1 2.9 2.8 4.6.8 1.9 1.2 3.6 1.2 5.3zm48.2 16h-8.7l-5.6-15.5h-13.5L208 50.3h-8.9l18-50.1h6.5l17.8 50.1zm-16.6-22l-4.5-12.5-4.2 12.5h8.7zM287.1.1v50.2H280l-19.9-32.2v32.2h-8.5V.1h7.3l19.8 32.6V.1h8.4zm55 0l-17.4 25.5v24.5H316V25.7L298.6.1h9.7l12.1 17.6L332.3.1h9.8zm25.4 50.1c-3.1 0-6-.7-8.7-2s-5-3.1-7-5.4c-2-2.2-3.6-4.9-4.7-7.9-1.2-3-1.7-6.2-1.7-9.7 0-3.4.6-6.7 1.7-9.7 1.2-3 2.7-5.7 4.7-8s4.3-4.1 7-5.4c2.7-1.3 5.6-2 8.7-2 3.1 0 6 .7 8.7 2s5.1 3.1 7.1 5.4c2 2.3 3.6 4.9 4.8 8 1.2 3 1.7 6.3 1.7 9.7s-.6 6.6-1.7 9.7c-1.2 3-2.7 5.6-4.8 7.9-2 2.2-4.4 4-7.1 5.4-2.7 1.4-5.6 2-8.7 2zm0-43.5c-1.9 0-3.7.5-5.4 1.5s-3.1 2.3-4.4 4c-1.3 1.7-2.3 3.7-3 5.9-.7 2.3-1.1 4.7-1.1 7.2s.4 4.9 1.1 7.1c.7 2.2 1.7 4.2 3 5.9 1.3 1.7 2.7 3 4.4 4s3.4 1.5 5.4 1.5c1.9 0 3.6-.5 5.3-1.5s3.1-2.3 4.3-4 2.2-3.6 3-5.9c.7-2.2 1.1-4.6 1.1-7.1s-.4-4.9-1.1-7.2c-.7-2.3-1.7-4.3-3-5.9-1.2-1.7-2.7-3-4.3-4-1.7-1-3.5-1.5-5.3-1.5zM440 .1v50.2h-8.6v-1.4c-.7.3-1.6.6-2.6.8-1.6.3-3.3.4-5.2.4-1.6 0-3.6-.2-5.8-.5-1.8-.5-3.5-1.2-5.1-2.1s-3.1-1.9-4.4-3c-1.3-1.2-2.5-2.4-3.5-3.8s-1.8-2.8-2.4-4.3c-.3-1-.6-2.1-.9-3.3-.3-1.2-.4-2.3-.4-3.4V.1h8.5v29.6c0 1.9.4 3.6 1.1 5.3.7 1.7 1.7 3.2 2.9 4.5s2.6 2.3 4.3 3.1c1.6.8 3.4 1.1 5.3 1.1h.5c1.5 0 2.9-.2 4.2-.7 1.3-.4 2.5-1.1 3.7-1.9V0h8.4v.1zM168 73.6v11.6h20.6v6.4H168v19.2h20.6v6.5h-29.1V67.1h29.1v6.5H168zm74.1 27.7c0 2.2-.5 4.2-1.4 6.2-.9 1.9-2.2 3.6-3.8 5.1-1.6 1.5-3.5 2.6-5.6 3.5-2.2.8-4.5 1.3-6.9 1.3-1.7 0-3.3-.2-4.9-.5s-3.1-.8-4.5-1.6-2.7-1.8-4-3.1c-1.3-1.3-2.5-3-3.6-5l5.8-3.5c1.4 2.7 3.1 4.6 5 5.7s4 1.6 6.1 1.6c1.2 0 2.4-.3 3.5-.8s2.1-1.2 3-2.1c.8-.9 1.5-1.9 2-3 .5-1.2.8-2.4.8-3.7 0-1.9-.5-3.6-1.6-5-1-1.4-2.2-2.4-3.5-3-1-.4-2.3-.7-3.9-.8-1.3-.2-2.3-.4-3.2-.5-.8-.2-1.5-.4-2.1-.5-3-1-5.4-2.5-7.2-4.6-1.8-2.1-2.7-4.4-2.7-7.1 0-1.7.4-3.4 1.2-4.9.8-1.5 1.9-2.8 3.2-4 1.3-1.1 2.9-2 4.7-2.7 1.8-.6 3.7-1 5.7-1 2.6 0 5.1.6 7.4 1.9 2.4 1.3 4.3 3 5.9 5.1l-3.9 4.4c-.9-1.2-1.8-2.2-2.7-2.9-.9-.7-1.7-1.2-2.5-1.5s-1.6-.5-2.3-.5c-.7-.1-1.4-.1-1.9-.1-1.7 0-3.2.6-4.4 1.8-1.2 1.2-1.8 2.6-1.8 4.3 0 1.9.5 3.2 1.5 4.1.6.6 1.4 1.1 2.5 1.3 1 .3 2.5.6 4.3.8 3.1.4 5.6 1.1 7.4 2.1s3.3 2.1 4.4 3.3c1.2 1.3 2.1 2.9 2.8 4.6s1.2 3.6 1.2 5.3zm48-34.1v6.5h-12v43.7h-8.5V73.7h-12v-6.5h32.5zm53.7 50.1h-8.7l-5.6-15.5H316l-5.6 15.5h-8.9l18-50.1h6.5l17.8 50.1zm-16.6-22l-4.5-12.5-4.2 12.5h8.7zm61.2-28.1v6.5h-12v43.7h-8.5V73.7h-12v-6.5h32.5zm30.4 6.4v11.6h20.5v6.4h-20.6v19.2h20.6v6.5h-29.1V67.1h29.1v6.5h-20.5z"/><path d="M418.8 73.6v11.6h20.5v6.4h-20.6v19.2h20.6v6.5h-20.6V67.1h20.6v6.5h-20.5z" fill="#0097d9"/><path class="st1" d="M0 33.9l51.4-22.4 1.9 4.4L1.9 38.3c-.3.1.3 0 0 0M0 63.9l51.4-22.4 1.9 4.4L1.9 68.3c-.3.1.3 0 0 0m51.4 7.5L2 98.2l-2-4.4 51.4-22.4zm4-62.5l6.7 2.9-1.9 4.4s.3.1 0 0l-6.7-2.9m28.8 3v4.7c0 1.3-1.1 2.4-2.4 2.4s-2.4-1.1-2.4-2.4v-4.7h4.8zm9.2 4.1v4.7c0 1.3-1.1 2.4-2.4 2.4s-2.4-1.1-2.4-2.4v-4.7h4.8zM57.3 43.3l6.7 2.9-1.9 4.4-6.7-2.9m1.9 25.6l6.7 2.9-1.9 4.4-6.7-2.9z"/><path class="st1" d="M67.5 17.8l37.2 16.1-1.9 4.4s.3.1 0 0L65.6 22.2m1.9 25.6l37.2 16.3-1.9 4.4-37.2-16.3m1.9 25.7l37.2 16.4-1.9 4.4-37.2-16.4z"/><path class="st1" d="M84.1 103.8V29.4c0-1.3 1.1-2.4 2.4-2.4s2.4 1.1 2.4 2.4v74.4h-4.8zm-66.6-.1V89.1c0-1.3 1.1-2.4 2.4-2.4 1.3 0 2.4 1.1 2.4 2.4v14.6"/><path class="st1" d="M17.5 99h71.4v4.8H17.5z"/></svg>